<?xml version="1.0" encoding="UTF-8"?>
<!-- Created with Inkscape (http://www.inkscape.org/) -->
<svg width="70.551mm" height="72.726mm" version="1.1" viewBox="0 0 70.551 72.726" xmlns="http://www.w3.org/2000/svg">
 <path id="ai_icon_expanded_combined" d="m28.854 15.57h-13.738c-8.3426 0-15.116 6.7733-15.116 15.116v26.924c0 8.3428 6.7733 15.116 15.116 15.116h26.925c8.3426 0 15.116-6.7731 15.116-15.116v-13.462c0-0.91281-0.74083-1.6536-1.6536-1.6536-0.91255 0-1.6536 0.74083-1.6536 1.6536v13.462c0 6.5175-5.2911 11.809-11.808 11.809h-26.925c-6.5172 0-11.809-5.2911-11.809-11.809v-26.924c0-6.5172 5.2914-11.809 11.809-11.809h13.738c0.91281 0 1.6536-0.74083 1.6536-1.6536 0-0.91255-0.74083-1.6536-1.6536-1.6536zm6.0388 40.911h-6.0545l-1.7545-5.4869h-8.7723l-1.7373 5.4869h-6.0201l8.9786-24.665h6.5876zm8.6347 0h-5.5557v-24.665h5.5557zm-17.716-9.7525-2.6487-8.2905c-0.195-0.61939-0.33258-1.3589-0.41275-2.2188h-0.13758c-0.05741 0.72231-0.20082 1.4391-0.43021 2.15l-2.6831 8.3592zm28.378-42.464c-0.23998-0.64902-0.85884-1.0798-1.5507-1.0798-0.69215 0-1.3107 0.43074-1.551 1.0798l-4.1275 11.155-11.155 4.1275c-0.64902 0.24024-1.0798 0.85884-1.0798 1.551 0 0.69189 0.43074 1.3107 1.0798 1.5507l11.155 4.1278 4.1275 11.155c0.24024 0.64902 0.85884 1.0798 1.551 1.0798 0.69188 0 1.3107-0.43074 1.5507-1.0798l4.1278-11.155 11.155-4.1278c0.64902-0.23998 1.0798-0.85884 1.0798-1.5507 0-0.69215-0.43074-1.3107-1.0798-1.551l-11.155-4.1275zm-1.5507 5.339 2.8406 7.6766c0.16748 0.45244 0.5244 0.80936 0.97684 0.97684l7.6769 2.8408-7.6769 2.8406c-0.45244 0.16748-0.80936 0.5244-0.97684 0.97684l-2.8406 7.6766s-2.8408-7.6766-2.8408-7.6766c-0.16748-0.45244-0.52414-0.80936-0.97684-0.97684l-7.6766-2.8406 7.6766-2.8408c0.4527-0.16748 0.80936-0.5244 0.97684-0.97684zm-13.178-8.7032c-0.20002-0.54081-0.7157-0.89985-1.2922-0.89985-0.57679 0-1.0925 0.35904-1.2925 0.89985l-1.656 4.4754-4.4754 1.6563c-0.54081 0.20002-0.89985 0.7157-0.89985 1.2922 0 0.57679 0.35904 1.0925 0.89985 1.2925l4.4754 1.656 1.656 4.4754c0.20002 0.54081 0.7157 0.89985 1.2925 0.89985 0.57653 0 1.0922-0.35904 1.2922-0.89985l1.656-4.4754 4.4757-1.656c0.54054-0.20002 0.89958-0.7157 0.89958-1.2925 0-0.57653-0.35904-1.0922-0.89958-1.2922l-4.4757-1.6563zm-1.2922 4.4492 0.58341 1.5769c0.1397 0.3773 0.43709 0.67469 0.81412 0.81439l1.5772 0.58341-1.5772 0.58367c-0.37703 0.13944-0.67442 0.43683-0.81412 0.81412l-0.58341 1.5772-0.58367-1.5772c-0.13944-0.3773-0.43683-0.67469-0.81412-0.81412l-1.5772-0.58367 1.5772-0.58341c0.3773-0.1397 0.67469-0.43709 0.81412-0.81439z" clip-rule="evenodd" fill="#00415d" fill-rule="evenodd" stroke-linejoin="round" stroke-miterlimit="2" stroke-width=".26458"/>
</svg>
