<?xml version="1.0" encoding="UTF-8" standalone="no"?><!DOCTYPE svg PUBLIC "-//W3C//DTD SVG 1.1//EN" "http://www.w3.org/Graphics/SVG/1.1/DTD/svg11.dtd"><svg width="100%" height="100%" viewBox="0 0 8017 4517" version="1.1" xmlns="http://www.w3.org/2000/svg" xmlns:xlink="http://www.w3.org/1999/xlink" xml:space="preserve" xmlns:serif="http://www.serif.com/" style="fill-rule:evenodd;clip-rule:evenodd;stroke-linejoin:round;stroke-miterlimit:2;"><path id="browser_outline" d="M8016.67,56.924c-0,-31.417 -25.507,-56.924 -56.925,-56.924c0,0 -7902.82,0 -7902.82,0c-31.417,0 -56.924,25.507 -56.924,56.924c-0,0 -0,4402.82 -0,4402.82c-0,31.418 25.507,56.925 56.924,56.925c0,-0 7902.82,-0 7902.82,-0c31.418,-0 56.925,-25.507 56.925,-56.925l-0,-4402.82Zm-16.667,349.506l-0,4053.31c-0,22.219 -18.039,40.258 -40.258,40.258l-7902.82,0c-22.218,0 -40.257,-18.039 -40.257,-40.258l-0,-4053.31l7983.33,-0Z" style="fill:#00415d;"/></svg>