<?xml version="1.0" encoding="UTF-8"?>
<!-- Created with Inkscape (http://www.inkscape.org/) -->
<svg width="64.134mm" height="62.769mm" version="1.1" viewBox="0 0 64.134 62.769" xmlns="http://www.w3.org/2000/svg">
 <path id="integrated_icon_curves_expanded_combined" d="m10.505 29.183-5.7272 5.7269c-6.3698 6.3698-6.3698 16.713 0 23.082 6.3696 6.3698 16.712 6.3698 23.082 0l11.454-11.454c6.3698-6.3698 6.3698-16.713 0-23.082-1.3444-1.3446-3.5274-1.3446-4.872 0-1.3444 1.3443-1.3444 3.5274 0 4.872 3.6809 3.6806 3.6809 9.6573 0 13.338l-11.454 11.454c-3.6806 3.6809-9.6573 3.6809-13.338 0-3.6806-3.6806-3.6806-9.6573 0-13.338l5.7272-5.7272c1.3443-1.3446 1.3443-3.5277 0-4.872-1.3446-1.3446-3.5277-1.3446-4.872 0zm43.125 4.4037 5.7272-5.7272c6.3698-6.3696 6.3698-16.712 0-23.082-6.3696-6.3696-16.712-6.3696-23.082 0 0 0-11.454 11.454-11.454 11.454-6.3696 6.3698-6.3696 16.713 0 23.082 1.3446 1.3446 3.5277 1.3446 4.8723 0 1.3444-1.3443 1.3444-3.5277 0-4.872-3.6809-3.6809-3.6809-9.6573 0-13.338l11.454-11.454c3.6806-3.6809 9.6573-3.6809 13.338 0 3.6806 3.6806 3.6806 9.6573 0 13.338 0 0-5.7272 5.7272-5.7272 5.7272-1.3444 1.3443-1.3444 3.5277 0 4.872 1.3446 1.3446 3.5277 1.3446 4.872 0z" clip-rule="evenodd" fill="#00415d" fill-rule="evenodd" stroke-linejoin="round" stroke-miterlimit="2" stroke-width=".26458"/>
</svg>
