<?xml version="1.0" encoding="UTF-8"?>
<!-- Created with Inkscape (http://www.inkscape.org/) -->
<svg width="79.3mm" height="79.296mm" version="1.1" viewBox="0 0 79.3 79.296" xmlns="http://www.w3.org/2000/svg">
 <path d="m79.3 39.646c0 19.928-15.024 36.917-34.803 39.353l9.4268-35.18c0.70432-2.4045 0.78952-4.9485 0.24791-7.3946-0.55271-2.4876-1.7354-4.7921-3.4348-6.691h27.314c0.83264 3.2382 1.2523 6.5688 1.2491 9.9126m-79.3 0c-7.94e-4 21.615 17.674 39.453 39.288 39.65l7.0678-26.372c-1.1356 0.57282-2.34 0.99748-3.5835 1.2636-2.8877 0.62071-5.8957 0.36698-8.6386-0.7284-1.9487-0.77867-3.7105-1.9611-5.1694-3.4695l-25.827-25.827c-2.0738 4.8982-3.1409 10.164-3.1374 15.483m24.801-0.82788-19.31-19.314c7.1252-12.073 20.141-19.504 34.159-19.504 16.124 0 30.713 9.8319 36.765 24.777h-36.438c-2.1307-0.04789-4.2471 0.36274-6.2053 1.2044-5.1832 2.2167-8.6707 7.207-8.9707 12.837m14.849 10.74c5.4377 0 9.9126-4.4746 9.9126-9.9124 0-5.438-4.4749-9.9126-9.9126-9.9126-5.438 0-9.9126 4.4746-9.9126 9.9126 0 5.4377 4.4746 9.9124 9.9126 9.9124" clip-rule="evenodd" fill="#00415d" fill-rule="evenodd" stroke-linejoin="round" stroke-miterlimit="2" stroke-width=".26458"/>
</svg>
