<?xml version="1.0" encoding="UTF-8"?>
<!-- Created with Inkscape (http://www.inkscape.org/) -->
<svg width="78.304mm" height="78.131mm" version="1.1" viewBox="0 0 78.304 78.131" xmlns="http://www.w3.org/2000/svg">
 <path d="m0.013956 37.959c-0.16272 6.1468 1.0993 12.249 3.6867 17.827 5.8894 12.538 18.008 21.054 31.8 22.346-1.3324-0.50244-2.6183-1.12-3.8433-1.8457h-0.04921l-0.58738-0.36724c-2.9901-1.8648-5.5851-4.2987-7.6377-7.1631-3.3954-4.6469-5.2263-10.256-5.2263-16.011 0-10.323 5.8896-19.787 15.151-24.347l0.17119-0.07832c1.0184-0.47995 3.0356-1.4298 5.7137-1.3954 0.63341 0.0032 1.2599 0.05715 1.8801 0.1614-1.4372-1.3798-3.0768-2.5321-4.8617-3.4174l-0.04895-0.02434c-5.1165-2.6784-10.742-2.7712-11.716-2.7712-11.946 0-23.619 8.0002-24.431 17.087zm50.028 38.747c0.49874-0.12462 0.99351-0.26511 1.4835-0.42095l0.40137-0.1225c8.4288-2.9141 15.618-8.6146 20.377-16.157 0.11483-0.1905 0.17542-0.40878 0.17542-0.6313 0-0.67151-0.55245-1.2242-1.224-1.2242-0.1995 0-0.39582 0.04868-0.57203 0.14208-1.0509 0.54822-2.1331 1.0282-3.2462 1.4393-3.5139 1.3044-7.2334 1.9677-10.982 1.9584-14.477 0-27.085-9.9438-27.085-22.737 0.0098-0.66252 0.08493-1.3139 0.22516-1.9534-7.7459 7.7142-8.7082 20.055-2.2521 28.877l0.01455 0.02434c1.5423 2.1593 3.4615 4.0196 5.6698 5.4885h0.01455l0.70511 0.44053c4.2939 2.6929 8.4262 5.2779 16.294 4.8765zm0.2204-0.0098c0.43392-0.13044 0.86651-0.26776 1.2973-0.41116-0.49927 0.15319-1.0004 0.29369-1.5031 0.42095zm-3.6896-31.141-0.18336 0.17886c-0.33761 0.30348-0.83211 0.74904-0.83211 1.5129 0 0.79322 0.52388 1.5912 1.4687 2.2326 4.2939 3.0014 12.343 2.644 12.69 2.6342h0.0098c3.2658 0 6.463-0.88133 9.2731-2.5411 5.743-3.3621 9.2887-9.5319 9.3025-16.186 0.0881-6.4431-2.1542-10.86-3.2607-13.043l-0.19579-0.39158c-6.5167-12.671-20.505-19.951-35.712-19.951-16.477 0-31.271 10.397-36.852 25.9 4.9694-6.0809 13.268-9.929 22.164-9.929 13.856 0 24.529 9.2289 24.529 23.486h-0.01958v0.0098c0 1.6542-0.8218 4.0717-2.3823 6.0881zm0 0-0.0026 0.0026 0.02937-0.02937z" clip-rule="evenodd" fill="#00415d" stroke-linejoin="round" stroke-miterlimit="2" stroke-width=".26458"/>
</svg>
