<?xml version="1.0" encoding="UTF-8"?>
<!-- Created with Inkscape (http://www.inkscape.org/) -->
<svg width="76.737mm" height="79.242mm" version="1.1" viewBox="0 0 76.737 79.242" xmlns="http://www.w3.org/2000/svg">
 <path d="m66.256 16.869c2.6498 1.3668 6.0423 5.7055 7.7063 9.7218 2.422 6.1259 3.2782 12.76 2.4913 19.301l-0.04471 0.38126-0.12859 1.1094c-3.1787 18.338-19.247 31.86-37.858 31.86-21.054 0-38.387-17.305-38.422-38.358v-0.19817c0.08255-1.7994 0.27067-3.5856 0.56462-5.3586 0.04948-0.36645 0.37121-2.0802 0.44556-2.422l0.04948-0.25241c0.93927-4.1799 2.6911-8.1346 5.1557-11.639 1.0798-1.5354 2.2767-2.9715 3.5907-4.3087 1.1557-1.1819 2.4072-2.255 3.7542-3.2192 0.40587-0.26776 0.83741-0.49504 1.2877-0.67839-0.08916 1.3272-0.19817 7.6912 1.3272 9.6229h0.01508c2.5511-3.0017 5.7028-5.4361 9.2514-7.1467-0.80513 3.0829-0.76914 6.3259 0.10398 9.3901 0.3466 0.23124 0.6768 0.48207 0.9906 0.75274 0.5297 0.44582 1.1192 1.0253 2.2484 2.1447l0.33682 0.32676 0.04445 0.04445c0.33046 0.32147 0.68289 0.61939 1.0549 0.89165 1.8968 1.4213 4.6704 2.7882 6.4683 3.6698 0.99536 0.4953 1.6936 0.83211 1.778 0.95594l0.01958 0.03969c-0.05927 0.95568-3.442 4.2492-4.6207 4.2492-10.925 0-12.698 6.6117-12.698 6.6117 0.43074 4.9379 3.5362 9.108 7.5131 11.673 0.69903 0.44291 1.425 0.84164 2.1741 1.1935 0.3765 0.1651 0.75274 0.32041 1.1292 0.46567 1.6097 0.56938 3.2935 0.89138 5.0022 0.9607 15.071 0.70829 20.578-13.887 15.497-23.5v-5e-3c-0.9054-1.7071-2.1352-3.221-3.6203-4.4574-0.87021-0.71596-1.819-1.3309-2.8279-1.8325l-0.01508-0.0098c3.2581-0.4228 6.5601 0.37888 9.2615 2.2484-3.4356-6.0447-9.866-9.7996-16.819-9.8211-0.38312 0.0034-0.76279 0.01984-1.139 0.04948l-0.20823 0.01508v-5e-3h-0.0098c-1.3409 0.09604-2.6683 0.32835-3.9621 0.69347-0.53261-0.53631-1.0827-1.0549-1.6491-1.5552-0.31406-0.27146-0.64505-0.52282-0.9906-0.75274-0.17621-0.62495-0.32173-1.2578-0.43577-1.8971 2.1548-0.78475 4.4085-1.2666 6.6958-1.4311l0.24765-0.01482c0.2577-0.01984 0.61912-0.04974 1.0155-0.05953 1.5452-5.3737 5.1951-12.154 12.312-16.319l-0.01482 0.02487 0.01482-5e-3 0.0098-0.0098h0.01005l0.009784-0.01005h0.07435c0.02328 0.0042 0.04445 0.0164 0.05953 0.03466 0.25241 0.82735 0.59452 1.6245 1.0202 2.3773 0.29713 0.50535 0.59928 0.99563 0.9062 1.4711 2.4268 3.8333 5.0665 6.8297 7.642 9.7467 3.8185 4.3285 7.4882 8.4936 10.084 14.957l-5e-3 -0.06429c-0.68368-4.0635-1.9971-7.9952-3.8928-11.654" clip-rule="evenodd" fill="#00415d" stroke-linejoin="round" stroke-miterlimit="2" stroke-width=".26458"/>
</svg>
