<?xml version="1.0" encoding="UTF-8"?>
<!-- Created with Inkscape (http://www.inkscape.org/) -->
<svg width="128.23mm" height="121.57mm" version="1.1" viewBox="0 0 128.23 121.57" xmlns="http://www.w3.org/2000/svg">
 <g id="newsletter_icon_expanded" transform="matrix(.26458 0 0 .26458 -727.45 -477.27)" clip-rule="evenodd" fill-rule="evenodd" stroke-linejoin="round" stroke-miterlimit="2">
  <path d="m3227.8 1965-236.07-128.18-236.07 128.18v292.07h472.15z" fill="#fff"/>
  <g fill="#00415d">
   <path d="m3234.1 1965c0-2.291-1.254-4.399-3.268-5.492l-236.07-128.18c-1.859-1.01-4.104-1.01-5.964 0l-236.07 128.18c-2.014 1.093-3.268 3.201-3.268 5.492v292.07c0 3.452 2.798 6.25 6.25 6.25h472.15c3.451 0 6.25-2.798 6.25-6.25zm-12.5 3.719v282.1h-459.65v-282.1l229.82-124.78z"/>
   <path d="m3175 1810.1h-366.54v194.14l183.27 104.57 183.27-104.57z"/>
   <path d="m3181.3 1810.1c0-3.452-2.798-6.25-6.25-6.25h-366.54c-3.452 0-6.25 2.798-6.25 6.25v194.14c0 2.245 1.204 4.317 3.153 5.429l183.27 104.57c1.92 1.095 4.275 1.095 6.195 0l183.27-104.57c1.949-1.112 3.152-3.184 3.152-5.429zm-12.5 6.25v184.26l-177.02 101-177.02-101v-184.26z"/>
  </g>
  <path d="m2779.6 2233.6 211.47-161.73 212.6 161.73" fill="#fff"/>
  <path d="m2783.4 2238.6 207.68-158.83 208.81 158.84c2.746 2.088 6.67 1.555 8.758-1.191 2.089-2.745 1.556-6.67-1.19-8.758l-212.6-161.73c-2.241-1.705-5.344-1.701-7.581 0.01l-211.47 161.73c-2.74 2.095-3.263 6.021-1.168 8.761 2.096 2.74 6.022 3.263 8.762 1.168z" fill="#00415d"/>
  <g fill="#fff">
   <path d="m2863.8 1880.2h255.98c3.45 0 6.25-2.801 6.25-6.25 0-3.45-2.8-6.25-6.25-6.25h-255.98c-3.449 0-6.25 2.8-6.25 6.25 0 3.449 2.801 6.25 6.25 6.25z"/>
   <path d="m2863.8 1929.2h255.98c3.45 0 6.25-2.8 6.25-6.25 0-3.449-2.8-6.25-6.25-6.25h-255.98c-3.449 0-6.25 2.801-6.25 6.25 0 3.45 2.801 6.25 6.25 6.25z"/>
   <path d="m2863.8 1978.1h255.98c3.45 0 6.25-2.801 6.25-6.25 0-3.45-2.8-6.25-6.25-6.25h-255.98c-3.449 0-6.25 2.8-6.25 6.25 0 3.449 2.801 6.25 6.25 6.25z"/>
   <path d="m2863.8 2027h255.98c3.45 0 6.25-2.8 6.25-6.25 0-3.449-2.8-6.25-6.25-6.25h-255.98c-3.449 0-6.25 2.801-6.25 6.25 0 3.45 2.801 6.25 6.25 6.25z"/>
  </g>
 </g>
</svg>
