<?xml version="1.0" encoding="UTF-8"?>
<!-- Created with Inkscape (http://www.inkscape.org/) -->
<svg width="145.78mm" height="149.65mm" version="1.1" viewBox="0 0 145.78 149.65" xmlns="http://www.w3.org/2000/svg">
 <g id="newsletter_icon_expanded" transform="matrix(.26458 0 0 .26458 -711.12 -463.88)" clip-rule="evenodd" fill-rule="evenodd" stroke-linejoin="round" stroke-miterlimit="2">
  <path d="m3232.4 2034.3-186.1-193.72-263.82 50.574-88.549 278.33 449.93 143.14z" fill="#fff"/>
  <g fill="#00415d">
   <path d="m3238.4 2036.1c0.6945-2.1832 0.1386-4.5721-1.4493-6.2243l-186.1-193.72c-1.4653-1.5261-3.6046-2.2067-5.6833-1.8082l-263.82 50.574c-2.2505 0.4309-4.0845 2.0596-4.7791 4.2427l-88.549 278.33c-1.0466 3.2895 0.7715 6.804 4.061 7.8506l449.93 143.14c3.2886 1.0462 6.8042-0.7714 7.8508-4.061zm-13.039-0.2458-85.527 268.83-438.01-139.35 85.527-268.83s256.84-49.235 256.84-49.235z"/>
   <path d="m3229.1 1870.6-349.29-111.13-58.857 185 142.94 155.21 206.35-44.082z"/>
   <path d="m3235 1872.5c1.0465-3.2895-0.7714-6.804-4.061-7.8506l-349.29-111.13c-3.2895-1.0466-6.8041 0.7714-7.8507 4.0609l-58.857 185c-0.6806 2.1394-0.1615 4.4789 1.3587 6.1295l142.94 155.21c1.4977 1.6255 3.7418 2.3396 5.9034 1.8781l206.35-44.081c2.1943-0.4688 3.9689-2.0785 4.6496-4.2178zm-13.806 2.1662-55.862 175.58s-199.31 42.578-199.31 42.578l-138.07-149.92 55.862-175.58z"/>
  </g>
  <path d="m2723.9 2154.3 250.55-90.003 153.56 218.57" fill="#fff"/>
  <path d="m2726 2160.2 246.06-88.393 150.82 214.67c1.9837 2.8222 5.8846 3.504 8.7068 1.5202 2.823-1.9825 3.5049-5.8843 1.5212-8.7066l-153.56-218.57c-1.6186-2.3042-4.5768-3.2411-7.2272-2.2888l-250.55 90.004c-3.2462 1.1658-4.9348 4.7484-3.7692 7.9946 1.1667 3.2465 4.7494 4.9351 7.9956 3.7694z" fill="#00415d"/>
  <g fill="#fff">
   <path d="m2911.2 1843.1 243.94 77.608c3.2876 1.046 6.8051-0.7743 7.8507-4.061 1.0459-3.2876-0.7733-6.8047-4.061-7.8507l-243.94-77.608c-3.2867-1.0456-6.8048 0.7734-7.8507 4.061-1.0457 3.2867 0.7743 6.8051 4.061 7.8506z"/>
   <path d="m2896.4 1889.7 243.94 77.608c3.2876 1.0459 6.8047-0.7733 7.8507-4.061 1.0457-3.2867-0.7733-6.8048-4.061-7.8507l-243.94-77.608c-3.2867-1.0457-6.805 0.7743-7.8507 4.061-1.0459 3.2876 0.7744 6.805 4.061 7.8507z"/>
   <path d="m2881.5 1936.3 243.94 77.608c3.2877 1.0459 6.8051-0.7744 7.8508-4.0611 1.0459-3.2876-0.7734-6.8047-4.0611-7.8507l-243.94-77.608c-3.2866-1.0456-6.8047 0.7734-7.8506 4.061-1.0457 3.2867 0.7742 6.8051 4.061 7.8507z"/>
   <path d="m2866.7 1983 243.94 77.608c3.2877 1.046 6.8048-0.7734 7.8508-4.0609 1.0456-3.2868-0.7734-6.8048-4.0611-7.8508l-243.94-77.608c-3.2866-1.0457-6.805 0.7742-7.8506 4.0609-1.0459 3.2876 0.7742 6.8051 4.061 7.8507z"/>
  </g>
 </g>
</svg>
